<svg xmlns="http://www.w3.org/2000/svg" width="100%" viewBox="0 0 1200 116" preserveAspectRatio="none"><g class="animate-in pix-waiting" data-anim-type="fade-in-up" data-anim-delay="400"><path fill="#fff" fill-opacity="0.2" d="M0,50 C200,16.6666667 400,7.10542736e-15 600,7.10542736e-15 C800,7.10542736e-15 1000,16.6666667 1200,50 L1200,116 L0,116 L0,50 Z"/></g><g class="animate-in pix-waiting" data-anim-type="fade-in-up" data-anim-delay="300"><path fill="rgba(255,255,255,0.8)" d="M0,80 C200,46.6666667 400,30 600,30 C800,30 1000,46.6666667 1200,80 L1200,116 L0,116 L0,80 Z"/></g><path fill="#fff" d="M0,110 C200,76.6666667 400,60 600,60 C800,60 1000,76.6666667 1200,110 L1200,116 L0,116 L0,110 Z"/><defs/></svg>